<?xml version="1.0" encoding="UTF-8"?>
<!DOCTYPE svg PUBLIC "-//W3C//DTD SVG 1.1//EN" "http://www.w3.org/Graphics/SVG/1.1/DTD/svg11.dtd">
<!-- Creator: CorelDRAW -->
<svg xmlns="http://www.w3.org/2000/svg" xml:space="preserve" width="30px" height="30px" style="shape-rendering:geometricPrecision; text-rendering:geometricPrecision; image-rendering:optimizeQuality; fill-rule:evenodd; clip-rule:evenodd"
viewBox="0 0 2048 2048"
 xmlns:xlink="http://www.w3.org/1999/xlink">
 <defs>
  <style type="text/css">
   <![CDATA[
    .fil0 {fill:#EC407A}
    .fil1 {fill:white;fill-rule:nonzero}
   ]]>
  </style>
 </defs>
 <g id="Layer_x0020_1">
  <metadata id="CorelCorpID_0Corel-Layer"/>
  <rect class="fil0" width="2048" height="2048" rx="256.001" ry="256.001"/>
  <path class="fil1" d="M1024 576.319c123.619,0 235.539,50.1107 316.555,131.126 81.0154,81.0154 131.126,192.936 131.126,316.555 0,123.619 -50.1107,235.539 -131.126,316.555 -81.0154,81.0154 -192.936,131.126 -316.555,131.126 -123.619,0 -235.539,-50.1107 -316.555,-131.126 -81.0154,-81.0154 -131.126,-192.936 -131.126,-316.555 0,-123.619 50.1107,-235.539 131.126,-316.555 81.0154,-81.0154 192.936,-131.126 316.555,-131.126z"/>
  <path class="fil1" d="M991.999 288c0,-17.6728 14.328,-32.0008 32.0008,-32.0008 17.6728,0 32.0008,14.328 32.0008,32.0008l0 205.764c0,17.6728 -14.328,32.0008 -32.0008,32.0008 -17.6728,0 -32.0008,-14.328 -32.0008,-32.0008l0 -205.764z"/>
  <path class="fil1" d="M991.999 1554.24c0,-17.6728 14.328,-32.0008 32.0008,-32.0008 17.6728,0 32.0008,14.328 32.0008,32.0008l0 205.764c0,17.6728 -14.328,32.0008 -32.0008,32.0008 -17.6728,0 -32.0008,-14.328 -32.0008,-32.0008l0 -205.764z"/>
  <path class="fil1" d="M288 1056c-17.6728,0 -32.0008,-14.328 -32.0008,-32.0008 0,-17.6728 14.328,-32.0008 32.0008,-32.0008l205.762 0c17.6728,0 32.0008,14.328 32.0008,32.0008 0,17.6728 -14.328,32.0008 -32.0008,32.0008l-205.762 0z"/>
  <path class="fil1" d="M1554.24 1056c-17.6728,0 -32.0008,-14.328 -32.0008,-32.0008 0,-17.6728 14.328,-32.0008 32.0008,-32.0008l205.762 0c17.6728,0 32.0008,14.328 32.0008,32.0008 0,17.6728 -14.328,32.0008 -32.0008,32.0008l-205.762 0z"/>
  <path class="fil1" d="M480.946 526.197c-12.4949,-12.4949 -12.4949,-32.7555 0,-45.2504 12.4949,-12.4949 32.7555,-12.4949 45.2504,0l145.494 145.494c12.4949,12.4949 12.4949,32.7555 0,45.2504 -12.4949,12.4949 -32.7555,12.4949 -45.2504,0l-145.494 -145.494z"/>
  <path class="fil1" d="M1376.31 1421.56c-12.4949,-12.4949 -12.4949,-32.7555 0,-45.2504 12.4949,-12.4949 32.7555,-12.4949 45.2504,0l145.494 145.494c12.4949,12.4949 12.4949,32.7555 0,45.2504 -12.4949,12.4949 -32.7555,12.4949 -45.2504,0l-145.494 -145.494z"/>
  <path class="fil1" d="M1521.8 480.946c12.4949,-12.4949 32.7555,-12.4949 45.2504,0 12.4949,12.4949 12.4949,32.7555 0,45.2504l-145.494 145.494c-12.4949,12.4949 -32.7555,12.4949 -45.2504,0 -12.4949,-12.4949 -12.4949,-32.7555 0,-45.2504l145.494 -145.494z"/>
  <path class="fil1" d="M626.441 1376.31c12.4949,-12.4949 32.7555,-12.4949 45.2504,0 12.4949,12.4949 12.4949,32.7555 0,45.2504l-145.494 145.494c-12.4949,12.4949 -32.7555,12.4949 -45.2504,0 -12.4949,-12.4949 -12.4949,-32.7555 0,-45.2504l145.494 -145.494z"/>
 </g>
</svg>
