<?xml version="1.0" encoding="UTF-8"?>
<!DOCTYPE svg PUBLIC "-//W3C//DTD SVG 1.1//EN" "http://www.w3.org/Graphics/SVG/1.1/DTD/svg11.dtd">
<!-- Creator: CorelDRAW -->
<svg xmlns="http://www.w3.org/2000/svg" xml:space="preserve" width="30px" height="30px" style="shape-rendering:geometricPrecision; text-rendering:geometricPrecision; image-rendering:optimizeQuality; fill-rule:evenodd; clip-rule:evenodd"
viewBox="0 0 2048 2048"
 xmlns:xlink="http://www.w3.org/1999/xlink">
 <defs>
  <style type="text/css">
   <![CDATA[
    .fil0 {fill:#424242}
    .fil1 {fill:white;fill-rule:nonzero}
   ]]>
  </style>
 </defs>
 <g id="Layer_x0020_1">
  <metadata id="CorelCorpID_0Corel-Layer"/>
  <rect class="fil0" width="2048" height="2048" rx="256.001" ry="256.001"/>
  <g id="_558424880">
   <path id="_558422048" class="fil1" d="M1024 656.092l0.00236221 0c101.894,0 194.146,41.1827 260.926,107.76 66.7016,66.5008 107.959,158.472 107.958,260.144l0.127559 0 0 0.00236221 0 0.00236221c0,101.59 -41.3067,193.569 -108.085,260.146 -66.7796,66.58 -159.033,107.762 -260.926,107.762l-0.00236221 0c-101.896,0 -194.15,-41.1815 -260.929,-107.762 -66.7772,-66.5776 -108.083,-158.557 -108.083,-260.149 0,-101.59 41.3055,-193.569 108.083,-260.146 66.7784,-66.5776 159.033,-107.76 260.929,-107.76z"/>
   <path id="_558422576" class="fil1" d="M991.967 305.222c-9.48072,-15.0118 -4.95945,-34.8461 10.0973,-44.2973 15.0567,-9.45237 34.95,-4.9441 44.4307,10.0677 24.9024,39.2729 49.8059,78.5493 37.8957,120.686 -5.49567,19.4575 -17.5347,34.1799 -29.1768,48.4158 -7.44922,9.10985 -14.602,17.8595 -14.5807,19.8874 0.0248032,2.30433 7.22363,11.7969 14.889,21.9071 11.9917,15.8126 24.6614,32.5217 30.0921,54.2209 3.69331,14.7697 3.29173,29.6055 0.0354331,44.4827 -2.84173,12.998 -7.91339,26.0185 -14.2323,39.0473 -7.73741,15.9851 -27.0083,22.6902 -43.0418,14.9764 -16.0335,-7.71497 -22.7587,-26.9292 -15.0213,-42.9142 4.2,-8.65985 7.49764,-16.9819 9.18544,-24.6992 1.27795,-5.83937 1.57677,-11.1059 0.467717,-15.5398 -2.15788,-8.62442 -10.8024,-20.0256 -18.9839,-30.8138 -14.1851,-18.7063 -27.5044,-36.2693 -27.7642,-60.163 -0.274016,-25.1481 14.0516,-42.6709 28.9701,-60.9142 7.45394,-9.11339 15.163,-18.5398 17.0599,-25.2603 4.15748,-14.7095 -13.0843,-41.902 -30.3225,-69.0898zm-366.368 121.493c-15.7547,-8.27127 -21.8008,-27.7099 -13.5047,-43.4174 8.29489,-15.7063 27.7914,-21.7347 43.5461,-13.4646l0.022441 0.011811 0.119291 0.0649607c41.4036,20.974 82.6619,42.0567 94.0076,84.1949 5.26654,19.5496 2.48386,38.2855 -0.206693,56.4 -1.72914,11.6386 -3.3874,22.8166 -2.4,24.4311 1.27087,2.07756 12.2681,6.53977 23.9776,11.2913 18.4217,7.47284 37.8862,15.3709 53.6315,31.1941 10.311,10.363 17.4484,22.7811 22.3288,36.6485 4.2567,12.0933 6.70985,25.213 8.09174,38.9351 1.74213,17.6528 -11.198,33.3733 -28.9051,35.1107 -17.7059,1.7374 -33.4736,-11.165 -35.2158,-28.8189 -0.902363,-8.96812 -2.37638,-17.1744 -4.80945,-24.0862 -1.80827,-5.1378 -4.13386,-9.4193 -7.18347,-12.4843 -6.33308,-6.3626 -19.6087,-11.7508 -32.1709,-16.8473 -21.8492,-8.86418 -42.3614,-17.1874 -54.7784,-37.4681 -13.2118,-21.5929 -9.89174,-43.9453 -6.43465,-67.2178 1.73504,-11.6811 3.52914,-23.765 1.72087,-30.4784 -3.93189,-14.6055 -32.3457,-29.0646 -60.8752,-43.5166 -0.315355,-0.152362 -0.627166,-0.308268 -0.938977,-0.47126l-0.022441 -0.011811zm-234.306 257.189c-17.7756,0.207874 -32.3575,-13.9902 -32.5654,-31.7126 -0.209055,-17.7225 14.0315,-32.2607 31.8071,-32.4685 21.1618,-0.298819 42.3284,-0.596457 61.6536,2.19803 24.0366,3.47481 45.3721,11.5181 61.3052,28.6902 13.8957,14.9764 20.1721,32.8323 26.2418,50.0989 3.87756,11.0315 7.60276,21.626 9.2882,22.6311 2.17087,1.29331 14.0339,0.134646 26.6658,-1.09843 19.8449,-1.93819 40.813,-3.9874 61.8166,2.61496 13.878,4.35827 25.8815,11.9114 36.5481,21.7335 9.41221,8.6693 17.6977,19.05 25.311,30.4488 9.82796,14.8028 5.76024,34.7492 -9.08859,44.5477 -14.8476,9.79961 -34.8532,5.74371 -44.6811,-9.06024 -4.91103,-7.35473 -9.95434,-13.7728 -15.2138,-18.6165 -4.00748,-3.68977 -8.02796,-6.3756 -12.0626,-7.64174 -8.90316,-2.79803 -23.1189,-1.41024 -36.5717,-0.0968505 -23.4201,2.2878 -45.4111,4.43504 -65.7945,-7.71142 -21.7075,-12.9437 -29.2276,-34.3347 -37.0559,-56.6091 -3.92481,-11.1638 -7.98308,-22.7114 -12.6106,-27.6981 -4.17992,-4.50473 -12.6189,-7.02875 -23.1851,-8.55473 -15.274,-2.20866 -33.5445,-1.95118 -51.8079,-1.69488zm-87.2457 336.246c-15.5445,8.68701 -35.2122,3.16654 -43.9252,-12.3319 -8.713,-15.4996 -3.17599,-35.1083 12.3697,-43.7953l0.0188977 -0.0106299c0.755906,-0.422835 1.5248,-0.810237 2.29843,-1.16575 40.3335,-21.8669 80.6788,-43.1764 121.391,-28.813 19.1681,6.76536 33.1028,19.6984 46.578,32.2063 8.60434,7.98544 16.8732,15.6579 18.6921,15.7571l0.126378 0.00826772 0 -0.00826772c2.61614,0.142913 12.502,-6.33898 23.028,-13.2402 16.6536,-10.9193 34.2496,-22.4575 56.152,-26.4059 14.4969,-2.61496 28.8626,-1.39961 43.1292,2.51811 12.7004,3.48662 25.0689,9.01654 37.2366,15.7347 15.5457,8.61851 21.1406,28.1693 12.4961,43.6689 -8.64331,15.4984 -28.2532,21.0768 -43.7989,12.4583 -8.11064,-4.47756 -15.8244,-8.01851 -22.8473,-9.94607 -5.45788,-1.49882 -10.474,-2.0504 -14.8559,-1.26024 -8.9445,1.61221 -20.8784,9.43702 -32.1709,16.8414 -19.7445,12.9461 -38.2831,25.1032 -61.904,23.8122l0 -0.00826772c-25.337,-1.42795 -41.9327,-16.8295 -59.2087,-32.863 -8.63741,-8.01733 -17.5701,-16.3075 -24.1099,-18.6165 -14.1543,-4.99489 -41.517,9.56339 -69.1678,24.5516 -0.49252,0.311811 -0.994489,0.61063 -1.50827,0.897638l-0.0200788 0.0106299zm79.1044 338.613c-9.89883,14.8039 -29.961,18.8032 -44.8087,8.93387 -14.8476,-9.86812 -18.8599,-29.8701 -8.96103,-44.6741l0.0236221 -0.0354331c0.490158,-0.732284 1.0063,-1.4374 1.5437,-2.11654 25.402,-37.93 51.1158,-75.2859 93.867,-81.4595 20.1567,-2.9126 38.4555,2.04567 56.152,6.84213 11.4118,3.09331 22.3748,6.0626 24.0378,5.30433 2.1815,-0.99567 7.9252,-11.3539 14.0386,-22.3855 9.62245,-17.3587 19.7906,-35.7 37.4504,-49.454 12.1358,-9.44528 26.139,-15.1406 41.4296,-18.2351 13.2969,-2.68819 27.3166,-3.32835 41.7284,-2.8252 17.7756,0.555119 31.7339,15.3756 31.1776,33.0981 -0.557481,17.7225 -15.4217,31.6394 -33.1973,31.0843 -10.0453,-0.349607 -19.2898,-0.011811 -27.0862,1.56496 -5.80276,1.17284 -10.741,3.04016 -14.4177,5.90197 -7.04646,5.48741 -13.9784,17.9917 -20.5358,29.8217 -11.4106,20.5843 -22.1221,39.9095 -43.8284,49.8201 -23.126,10.5579 -44.9693,4.63583 -67.7103,-1.52835 -11.4638,-3.1063 -23.315,-6.3189 -30.1512,-5.3315 -14.6516,2.11417 -31.9796,27.4571 -49.3807,53.4378 -0.416929,0.744095 -0.864568,1.47874 -1.34764,2.2004l-0.0236221 0.0354331zm228.195 262.573c-1.81181,17.6528 -17.6362,30.4984 -35.3433,28.6925 -17.7059,-1.80591 -30.5894,-17.5843 -28.7788,-35.237 2.2004,-20.9858 4.40552,-41.9752 9.52205,-60.9662 6.3189,-23.4496 16.8473,-43.6571 35.7827,-57.3638 16.2697,-11.7815 34.9571,-15.9236 53.0304,-19.9276 11.4284,-2.53229 22.4043,-4.96654 23.6386,-6.56103 1.55788,-2.01142 1.80354,-13.813 2.06457,-26.3788 0.415748,-19.9583 0.855119,-41.0433 9.93544,-61.115 6.66378,-14.7354 17.1508,-26.7591 30.2126,-36.952 11.3906,-8.8878 24.4099,-16.1197 38.2666,-22.4953 16.1717,-7.43623 35.3303,-0.393307 42.789,15.7299 7.45867,16.1232 0.394488,35.2252 -15.7772,42.6615 -10.0039,4.60276 -18.9024,9.43111 -25.6441,14.6929 -5.07166,3.9567 -8.9445,8.18032 -11.028,12.7902 -3.8067,8.41536 -4.10197,22.5603 -4.38071,35.9457 -0.487796,23.5477 -0.949607,45.6591 -15.4453,64.3855 -15.4217,19.9264 -37.6264,24.8457 -60.7477,29.9693 -11.4248,2.52992 -23.2406,5.14961 -29.0469,9.35316 -5.0315,3.64252 -8.54528,11.6658 -11.2961,21.8764 -3.95197,14.6693 -5.85591,32.7862 -7.75394,50.8996zm324.627 126.722c6.55158,16.4717 -1.52953,35.1225 -18.0496,41.6552 -16.5213,6.53268 -35.2288,-1.52362 -41.7803,-17.9953 -7.80709,-19.4977 -15.6154,-39.0024 -19.9748,-58.2981 -5.34922,-23.661 -5.46969,-46.3949 4.8567,-67.2615 9.01536,-18.2008 23.5299,-30.4595 37.5674,-42.313 8.92442,-7.5378 17.498,-14.7791 17.8417,-16.7445 0.432284,-2.46614 -4.87678,-13.0642 -10.5307,-24.3473 -8.87363,-17.7059 -18.248,-36.417 -19.6028,-58.7386 -1.03701,-17.028 3.04134,-33.2492 10.474,-48.9343 6.33071,-13.3571 15.2587,-26.354 25.4185,-39.1737 11.0138,-13.9004 31.2461,-16.2673 45.1878,-5.28662 13.9417,10.9807 16.3158,31.1528 5.30197,45.0532 -7.22363,9.11339 -13.4528,18.1063 -17.5925,26.8406 -3.03544,6.40512 -4.74095,12.3898 -4.41615,17.7236 0.537402,8.87717 6.96024,21.6921 13.0382,33.8209 10.5366,21.0284 20.4319,40.774 16.337,64.1174 -4.35,24.8043 -21.7193,39.4737 -39.8044,54.7477 -9.02009,7.61693 -18.3484,15.4961 -21.4099,21.6768 -2.77795,5.61142 -2.14488,14.3811 0.19252,24.724 3.32362,14.7095 10.1339,31.7244 16.9453,48.7335zm346.473 -38.6988c13.5248,11.537 15.1075,31.8213 3.53504,45.3048 -11.5713,13.4835 -31.9158,15.0614 -45.4394,3.52441 -15.952,-13.5815 -31.9063,-27.1666 -44.8583,-42.3213 -15.7795,-18.4606 -26.504,-38.5595 -27.104,-61.9264 -0.518504,-20.2748 6.57402,-37.7835 13.4327,-54.7122 4.41851,-10.9087 8.66339,-21.3874 8.06457,-23.2441 -0.779528,-2.42126 -10.4161,-9.32835 -20.6764,-16.6819 -16.1433,-11.5701 -33.2044,-23.798 -44.7567,-42.8221 -9.23741,-15.2079 -13.1681,-32.1461 -13.6902,-50.1827 -0.453544,-15.7878 1.62874,-31.8851 4.83189,-48.1134 3.41575,-17.4449 20.3693,-28.826 37.8662,-25.4209 17.4957,3.40512 28.9122,20.3091 25.4965,37.7528 -2.47205,12.5291 -4.10197,24.2244 -3.81969,34.0193 0.216142,7.54253 1.4752,13.9902 4.34882,18.7205 4.68071,7.70906 16.3217,16.0536 27.3378,23.948 19.1587,13.7303 37.1504,26.6268 44.4059,49.1493 7.74686,24.0201 -0.741733,44.9705 -9.57875,66.7867 -4.4563,11.0008 -9.06497,22.3772 -8.88898,29.2902 0.158268,6.15591 4.80945,13.5886 11.7047,21.6567 9.72402,11.3752 23.7579,23.3268 37.7882,35.2725zm288.513 -194.977c17.3575,3.89174 28.265,21.078 24.3614,38.3835 -3.90355,17.3055 -21.1406,28.1799 -38.4981,24.2882 -20.5406,-4.63583 -41.0847,-9.2752 -59.6103,-16.6713 -22.5543,-9.00355 -41.4059,-21.8091 -52.8367,-42.202 -9.89292,-17.6492 -11.8039,-36.5469 -13.6465,-54.8197 -1.17165,-11.615 -2.29961,-22.7693 -3.73819,-24.1772 -1.74921,-1.70906 -13.4894,-3.34961 -25.9902,-5.09292 -19.8071,-2.76496 -40.7374,-5.68937 -59.739,-17.0988 -15.3862,-9.24095 -26.8961,-22.8 -35.941,-39.0886 -7.76221,-13.9831 -13.4457,-29.6221 -18.2445,-45.9579 -4.94764,-17.0268 4.88504,-34.8331 21.9626,-39.7654 17.0788,-4.93347 34.937,4.86969 39.8859,21.8965 3.66733,12.4843 7.72442,23.9209 12.691,32.8689 3.6874,6.64252 7.91103,11.889 12.9697,14.9268 7.84961,4.71378 21.9272,6.68032 35.25,8.54056 23.3776,3.26221 45.3319,6.32717 62.3422,22.9642 18.0213,17.6244 20.302,40.1929 22.6725,63.691 1.1811,11.7047 2.40355,23.8063 5.82048,29.902 3.01299,5.37756 10.6217,9.80906 20.524,13.761 13.9311,5.56182 31.8508,9.60828 49.7646,13.6512zm164.457 -306.516c17.2169,-4.58622 34.9075,5.6126 39.5067,22.7788 4.6004,17.1662 -5.62914,34.8036 -22.8461,39.3886 -20.1461,5.3752 -40.2969,10.7492 -60.5292,12.8398 -24.1512,2.49331 -46.7811,-0.0779528 -66.3544,-12.7795 -17.1331,-11.1142 -27.6071,-26.8984 -37.7303,-42.1595 -6.47008,-9.75119 -12.6862,-19.1162 -14.5288,-19.6677 -2.60788,-0.779528 -13.728,3.20433 -25.5709,7.44686 -18.7984,6.73465 -38.6599,13.8508 -60.639,12.5811 -18.1406,-1.04764 -34.5827,-7.56733 -49.9359,-17.5701 -13.0547,-8.50276 -25.3524,-19.6559 -37.3193,-31.9453 -12.4075,-12.7181 -12.1252,-33.0591 0.630709,-45.43 12.7559,-12.3709 33.1583,-12.0886 45.5658,0.629528 8.84883,9.08741 17.6811,17.165 26.4638,22.8851 6.48308,4.22363 12.5988,6.92953 18.1299,7.24843 9.31536,0.538583 22.715,-4.2626 35.3941,-8.80394 22.2532,-7.97363 43.1492,-15.4583 65.7095,-8.70473 24.2705,7.25906 36.8103,26.1614 49.8697,45.8422 6.54331,9.86339 13.311,20.0646 19.0488,23.7862 5.24528,3.40394 14.0788,3.80788 24.7016,2.71181 14.5382,-1.50236 32.4874,-6.28937 50.4331,-11.0776zm2.84882 -347.931c13.3146,-11.8146 33.7158,-10.6311 45.5658,2.64331 11.85,13.2744 10.663,33.6154 -2.65158,45.43l-0.0106299 0.00944883 -0.498426 0.429922c-33.9048,31.2083 -67.8945,62.1225 -111.286,58.0961 -20.4803,-1.90276 -37.0807,-10.9961 -53.1343,-19.7858 -10.2756,-5.62678 -20.1473,-11.0327 -22.0831,-10.6559l-0.372048 0.068504c-2.75079,0.950788 -10.487,9.37087 -18.7087,18.3177 -13.5437,14.739 -27.854,30.3118 -47.987,39.4229 -16.0004,7.24371 -33.0437,9.17599 -50.7556,7.67363 -15.0036,-1.27205 -30.7524,-5.19685 -46.8307,-10.3217 -16.9394,-5.35158 -26.3197,-23.3823 -20.9528,-40.2709 5.36811,-16.8898 23.4532,-26.2429 40.3926,-20.8914 11.4673,3.65551 22.5319,6.44056 32.6941,7.30276 7.45394,0.63189 13.9465,0.126378 18.9461,-2.13543 8.413,-3.80788 17.9799,-14.2181 27.0331,-24.0697 15.5351,-16.9063 30.15,-32.811 52.3205,-37.852 0.608268,-0.155906 1.22599,-0.296457 1.85079,-0.418111 24.8197,-4.82953 44.7496,6.08504 65.5028,17.4496 10.4268,5.70827 21.2114,11.6162 27.8906,12.2362 14.9988,1.39134 38.302,-19.852 61.7138,-41.4 0.435827,-0.432284 0.884646,-0.857481 1.35,-1.26969l0.0106299 -0.00944883zm-160.531 -308.253c5.92441,-16.7504 24.3473,-25.539 41.1473,-19.6323 16.8,5.9067 25.6158,24.2752 19.6914,41.0256l-0.0129921 0.0366142c-15.5976,43.7882 -31.1953,87.5753 -71.9292,104.327 -18.7169,7.69607 -37.7162,7.35237 -56.0882,7.02166 -11.7579,-0.211417 -23.0504,-0.414567 -24.6118,0.836221 -1.96536,1.57441 -4.99016,13.0169 -8.20985,25.2012 -5.09528,19.2827 -10.4811,39.6603 -24.0638,57.0839 -10.3075,13.2343 -23.837,22.6536 -39.4961,29.5382 -13.3795,5.88308 -28.3571,9.80906 -44.1166,12.7689 -17.4969,3.26693 -34.337,-8.22757 -37.6134,-25.6725 -3.2752,-17.4449 8.25355,-34.2343 25.7492,-37.5012 11.152,-2.09528 21.4441,-4.73741 29.9799,-8.49095 6.25867,-2.75079 11.302,-6.04725 14.5039,-10.1587 5.65394,-7.25316 9.27639,-20.9587 12.7028,-33.926 6.00945,-22.741 11.6528,-44.0941 30.1725,-58.93 19.6878,-15.7665 42.3815,-15.3579 66.013,-14.9303 11.8406,0.212599 24.0874,0.433465 30.5918,-2.24055 14.0032,-5.75906 24.7914,-36.0402 35.576,-66.3201l0.0141732 -0.0366142zm-285.926 -200.465c-1.74213,-17.654 11.198,-33.3733 28.9051,-35.1107 17.2453,-1.69252 32.6504,10.5047 35.0504,27.4524l0.0401575 -0.00590552c6.63544,45.9744 13.2709,91.9631 -14.9398,125.661 -12.9602,15.4843 -29.967,24.0142 -46.4138,32.2607 -10.5165,5.27363 -20.6185,10.3406 -21.4075,12.1524 -0.977954,2.24292 1.69606,13.8083 4.5437,26.1272 4.48347,19.3949 9.22205,39.8894 5.35276,61.5166 -2.8004,15.6709 -9.77717,29.6587 -19.5921,42.4949 -8.59371,11.2358 -19.1232,21.2988 -30.6803,30.7311 -13.8012,11.2595 -34.1469,9.23032 -45.4394,-4.53071 -11.2925,-13.7599 -9.25867,-34.0453 4.5437,-45.3048 8.2193,-6.70867 15.3248,-13.363 20.3303,-19.9075 3.77953,-4.9441 6.37441,-9.81142 7.22245,-14.5571 1.63583,-9.14174 -1.56614,-22.9902 -4.59685,-36.0957 -5.28898,-22.8815 -10.2555,-44.3646 -0.755906,-66.1453 10.076,-23.1201 30.3437,-33.2835 51.45,-43.8662 10.5437,-5.28662 21.4488,-10.7563 25.9642,-16.1516 9.74174,-11.6362 5.14489,-43.4847 0.550394,-75.3249l0.0413386 -0.00590552c-0.0637796,-0.457087 -0.122835,-0.915355 -0.167717,-1.37835l-0.0011811 -0.011811z"/>
  </g>
 </g>
</svg>
